<svg id="visual" viewBox="0 0 900 600" width="900" height="600" xmlns="http://www.w3.org/2000/svg" xmlns:xlink="http://www.w3.org/1999/xlink" version="1.1"><path d="M0 474L21.5 481.8C43 489.7 86 505.3 128.8 511C171.7 516.7 214.3 512.3 257.2 500.2C300 488 343 468 385.8 454.3C428.7 440.7 471.3 433.3 514.2 441.7C557 450 600 474 642.8 485C685.7 496 728.3 494 771.2 486.2C814 478.3 857 464.7 878.5 457.8L900 451L900 601L878.5 601C857 601 814 601 771.2 601C728.3 601 685.7 601 642.8 601C600 601 557 601 514.2 601C471.3 601 428.7 601 385.8 601C343 601 300 601 257.2 601C214.3 601 171.7 601 128.8 601C86 601 43 601 21.5 601L0 601Z" fill="#0066FF" stroke-linecap="round" stroke-linejoin="miter"></path></svg>